<svg id="svg" version="1.1" xmlns="http://www.w3.org/2000/svg" xmlns:xlink="http://www.w3.org/1999/xlink" width="400" height="416.48028251912893" viewBox="0, 0, 400,416.48028251912893"><g id="svgg"><path id="path0" d="M189.876 30.511 C 173.995 31.487,162.902 33.241,150.795 36.689 C 71.170 59.369,19.580 134.904,27.435 217.304 C 35.029 296.957,98.240 361.159,177.752 369.976 C 199.098 372.343,221.646 370.581,242.142 364.944 C 246.540 363.734,254.678 361.072,255.018 360.733 C 256.134 359.617,256.998 340.306,256.190 334.550 C 253.698 316.810,247.005 310.806,226.486 307.906 C 224.980 307.693,208.983 307.603,161.872 307.543 C 104.370 307.470,99.225 307.433,98.835 307.080 C 98.441 306.723,98.411 306.082,98.411 298.048 L 98.411 289.400 99.277 288.137 C 100.399 286.503,110.078 272.642,144.791 222.955 C 151.350 213.567,161.767 198.655,167.940 189.818 C 191.205 156.511,201.638 141.577,207.731 132.854 C 211.187 127.907,214.078 123.695,214.154 123.495 C 214.320 123.064,162.542 122.946,157.473 123.366 C 146.682 124.260,142.819 129.809,136.905 152.913 C 136.176 155.762,135.481 158.473,135.360 158.938 C 134.995 160.345,135.141 160.330,122.002 160.326 C 108.363 160.322,108.926 160.398,108.821 158.558 C 108.769 157.654,111.529 119.593,113.241 97.606 C 113.416 95.355,113.579 94.453,113.868 94.133 C 114.478 93.459,287.170 93.458,287.780 94.133 C 288.128 94.517,288.170 95.517,288.170 103.529 L 288.170 112.495 284.559 117.637 C 280.653 123.200,277.869 127.154,270.164 138.081 C 267.424 141.966,263.394 147.687,261.208 150.795 C 256.101 158.054,253.801 161.321,242.227 177.752 C 236.983 185.197,231.685 192.719,230.455 194.467 C 225.922 200.911,205.992 229.211,200.362 237.198 C 197.168 241.730,191.758 249.411,188.341 254.267 C 184.923 259.123,179.811 266.380,176.981 270.394 L 171.835 277.693 172.851 277.746 C 173.410 277.776,188.275 277.840,205.886 277.889 C 223.496 277.937,238.170 278.036,238.493 278.109 C 238.817 278.181,240.141 278.308,241.436 278.392 C 242.731 278.475,244.002 278.585,244.261 278.637 C 244.520 278.688,245.315 278.790,246.027 278.864 C 246.739 278.937,247.693 279.052,248.146 279.121 C 282.946 284.361,298.255 301.075,299.065 334.714 L 299.117 336.880 302.413 334.264 C 355.860 291.837,378.837 222.257,361.173 156.327 C 344.119 92.677,290.508 43.773,225.810 32.847 C 220.215 31.902,214.968 31.249,210.594 30.954 C 209.429 30.876,208.158 30.764,207.769 30.706 C 206.825 30.566,191.669 30.400,189.876 30.511 " stroke="none" fill="#000000" fill-rule="evenodd"></path></g></svg>